<?xml version="1.0" encoding="UTF-8" standalone="no"?>
<svg
   xmlns:dc="http://purl.org/dc/elements/1.1/"
   xmlns:cc="http://creativecommons.org/ns#"
   xmlns:rdf="http://www.w3.org/1999/02/22-rdf-syntax-ns#"
   xmlns:svg="http://www.w3.org/2000/svg"
   xmlns="http://www.w3.org/2000/svg"
   xmlns:sodipodi="http://sodipodi.sourceforge.net/DTD/sodipodi-0.dtd"
   xmlns:inkscape="http://www.inkscape.org/namespaces/inkscape"
   sodipodi:docname="boy.svg"
   inkscape:version="1.0 (1.0+r73+1)"
   id="svg3423"
   version="1.1"
   viewBox="0 0 34.395836 44.785128"
   height="169.26663"
   width="130">
  <defs
     id="defs3417" />
  <sodipodi:namedview
     inkscape:window-maximized="1"
     inkscape:window-y="0"
     inkscape:window-x="0"
     inkscape:window-height="704"
     inkscape:window-width="1294"
     units="px"
     fit-margin-bottom="5"
     fit-margin-right="5"
     fit-margin-left="5"
     fit-margin-top="5"
     showgrid="false"
     inkscape:document-rotation="0"
     inkscape:current-layer="layer1"
     inkscape:document-units="mm"
     inkscape:cy="69.416233"
     inkscape:cx="60.200647"
     inkscape:zoom="2.0758243"
     inkscape:pageshadow="2"
     inkscape:pageopacity="0.0"
     borderopacity="1.0"
     bordercolor="#666666"
     pagecolor="#ffffff"
     id="base" />
  <metadata
     id="metadata3420">
    <rdf:RDF>
      <cc:Work
         rdf:about="">
        <dc:format>image/svg+xml</dc:format>
        <dc:type
           rdf:resource="http://purl.org/dc/dcmitype/StillImage" />
        <dc:title></dc:title>
      </cc:Work>
    </rdf:RDF>
  </metadata>
  <g
     transform="translate(-71.885493,-96.330013)"
     id="layer1"
     inkscape:groupmode="layer"
     inkscape:label="Layer 1">
    <g
       transform="matrix(0.820597,0,0,-0.820597,-612.32957,251.69786)"
       id="g10161">
      <path
         id="path5512"
         style="fill:#6b0a0a;fill-opacity:1;fill-rule:nonzero;stroke:none;stroke-width:0.1"
         d="m 842.222,172.146 h -0.002 v 0.018 z m -3.009,-4.777 2.937,2.842 c 0,0 -0.115,0.703 0.063,1.68 l 0.004,0.183 h 0.003 l 0.03,0.002 c 0.67,0.012 6.246,1.629 14.866,2.067 h 0.01 l 0.029,0.002 0.063,0.003 v 2.465 h -0.014 -3.278 c -0.082,-0.129 0.517,2.037 3.278,2.166 l 0.007,-1.068 0.006,0.547 -0.004,9.256 c 0,0 -14.429,-0.26 -15.039,-12.889 l -0.024,-0.01 c 0,0 -13.053,-4.619 -2.819,-8.035 -0.165,0.459 -0.118,0.789 -0.118,0.789" />
      <path
         id="path5514"
         style="fill:#d3aa83;fill-opacity:1;fill-rule:nonzero;stroke:none;stroke-width:0.1"
         d="m 841.116,164.807 c 0.698,-1.647 1.672,-2.252 2.369,-2.467 -0.223,0.746 -0.414,1.5 -0.573,2.252 -0.599,-0.078 -1.244,-0.014 -1.796,0.215" />
      <path
         id="path5516"
         style="fill:#d3aa83;fill-opacity:1;fill-rule:nonzero;stroke:none;stroke-width:0.1"
         d="m 871.116,162.309 c 0.787,0.207 2,0.904 2.73,3.17 0.907,2.821 -0.801,3.695 -1.544,3.935 -0.056,-0.361 -0.12,-0.695 -0.182,-0.973 -0.143,-1.986 -0.454,-4.089 -1.004,-6.132" />
      <path
         id="path5518"
         style="fill:#000000;fill-opacity:1;fill-rule:nonzero;stroke:none;stroke-width:0.1"
         d="m 857.271,139.02 0.04,0.044 c 0.05,0.106 0.162,0.301 0.36,0.553 -0.241,-0.254 -0.355,-0.445 -0.4,-0.549 v 0.063 l -10e-4,-0.026 v 7.948 h -0.003 l -0.005,-4.748 c 0,0 -1.474,0.281 -3.071,0.908 -1.099,1.947 -1.714,3.957 -0.011,4.502 l 0.281,-0.029 v 3.013 c -1.89,0.371 -3.511,1.113 -4.898,2.131 -5.897,-3.906 -2.204,-9.164 2.343,-10.373 1.979,-0.525 3.252,-1.252 4.057,-1.906 0.895,-0.725 1.215,-1.362 1.288,-1.53 l 0.009,-0.019 0.01,-0.025 v -2.606 l 10e-4,2.606 v 0.043" />
      <path
         id="path5526"
         style="fill:#333333;fill-opacity:1;fill-rule:nonzero;stroke:none;stroke-width:0.1"
         d="m 857.271,138.977 0.04,0.087 -0.04,-0.044 z" />
      <path
         id="path5528"
         style="fill:#333333;fill-opacity:1;fill-rule:nonzero;stroke:none;stroke-width:0.1"
         d="m 857.271,139.131 v -0.063 c 0.045,0.104 0.159,0.295 0.4,0.549 0.142,0.178 0.325,0.383 0.569,0.604 0.602,0.786 1.367,1.855 1.979,2.941 -1.548,-0.59 -2.941,-0.857 -2.941,-0.857 l -0.007,4.748 h -10e-4 v -7.948 l 10e-4,0.026" />
      <path
         id="path5530"
         style="fill:#e3cab3;fill-opacity:1;fill-rule:nonzero;stroke:none;stroke-width:0.1"
         d="m 860.219,143.162 c 1.092,1.942 1.697,3.94 0,4.481 l -0.268,-0.028 v -0.562 h -2.68 l 0.007,-4.748 c 0,0 1.393,0.267 2.941,0.857" />
      <path
         id="path5532"
         style="fill:#000000;fill-opacity:1;fill-rule:nonzero;stroke:none;stroke-width:0.1"
         d="m 860.219,143.162 c -0.612,-1.086 -1.377,-2.155 -1.979,-2.941 0.77,0.703 2.114,1.56 4.393,2.167 4.527,1.202 8.207,6.417 2.42,10.319 -1.421,-0.988 -3.108,-1.701 -5.102,-2.041 v -3.051 l 0.268,0.028 c 1.697,-0.541 1.092,-2.539 0,-4.481" />
      <path
         id="path5534"
         style="fill:#6b0a0a;fill-opacity:1;fill-rule:nonzero;stroke:none;stroke-width:0.1"
         d="m 851.622,140.824 c 0,0 3.622,-0.781 3.835,-1.847 l 1.813,-2.606 v 2.606 l -0.01,0.025 -0.009,0.019 c -0.073,0.168 -0.393,0.805 -1.288,1.53 -0.805,0.654 -2.078,1.381 -4.057,1.906 -4.547,1.209 -8.24,6.467 -2.343,10.373 -0.304,0.223 -0.597,0.453 -0.877,0.699 -1.035,-0.697 -5.063,-3.741 -3.884,-8.088 0.089,-0.324 0.194,-0.621 0.313,-0.902 1.725,-4.025 6.507,-3.715 6.507,-3.715" />
      <path
         id="path5536"
         style="fill:#981a27;fill-opacity:1;fill-rule:nonzero;stroke:none;stroke-width:0.1"
         d="m 862.633,142.388 c -2.279,-0.607 -3.623,-1.464 -4.393,-2.167 -0.244,-0.221 -0.427,-0.426 -0.569,-0.604 -0.198,-0.252 -0.31,-0.447 -0.36,-0.553 l -0.04,-0.087 -10e-4,-2.606 10e-4,0.002 1.811,2.533 c 0.213,1.065 3.836,1.846 3.836,1.846 0,0 4.728,-0.281 6.516,3.791 0.114,0.26 0.217,0.535 0.303,0.828 1.153,3.867 -2.754,7.063 -3.842,7.979 -0.271,-0.225 -0.553,-0.438 -0.842,-0.643 5.787,-3.902 2.107,-9.117 -2.42,-10.319" />
      <path
         id="path5538"
         style="fill:#e3cab3;fill-opacity:1;fill-rule:nonzero;stroke:none;stroke-width:0.1"
         d="m 842.217,172.074 -0.004,-0.183 0.004,0.014 0.003,0.169 h -0.003" />
      <path
         id="path5540"
         style="fill:#e3cab3;fill-opacity:1;fill-rule:nonzero;stroke:none;stroke-width:0.1"
         d="m 842.222,172.146 -0.002,0.018 v -0.018 z" />
      <path
         id="path5542"
         style="fill:#e3cab3;fill-opacity:1;fill-rule:nonzero;stroke:none;stroke-width:0.1"
         d="m 871.938,167.676 c 0,0 -0.426,0.996 -0.853,1.918 -0.425,0.924 0.497,0.356 -1.633,0.215 -1.54,-0.104 -2.341,2.132 -2.664,3.38 -0.311,0.049 -0.62,0.1 -0.929,0.145 -1.294,-0.967 -1.963,-0.363 -3.599,0.424 -1.52,0.134 -2.983,0.205 -4.375,0.226 -0.376,-0.416 -0.57,-0.947 -0.667,-1.356 v -5.589 h 1.309 c 6.069,3.52 10.347,-0.477 10.347,-0.477 0.379,-1.324 -0.475,-6.06 -4.736,-6.628 -3.831,-0.512 -5.16,3.634 -5.589,5.777 h -1.331 v -15.275 c 0.973,0 1.879,0.086 2.733,0.23 1.994,0.34 3.681,1.053 5.102,2.041 0.289,0.205 0.571,0.418 0.842,0.643 2.676,2.232 4.294,5.504 5.221,8.959 0.55,2.043 0.861,4.146 1.004,6.132 -0.099,-0.461 -0.182,-0.765 -0.182,-0.765" />
      <path
         id="path5544"
         style="fill:#e3cab3;fill-opacity:1;fill-rule:nonzero;stroke:none;stroke-width:0.1"
         d="m 857.213,150.436 h -0.029 0.029" />
      <path
         id="path5546"
         style="fill:#dbba9b;fill-opacity:1;fill-rule:nonzero;stroke:none;stroke-width:0.1"
         d="m 857.213,150.436 v 0 h -0.029 z m -2.752,0.263 v -3.013 l -0.281,0.029 c -1.703,-0.545 -1.088,-2.555 0.011,-4.502 1.597,-0.627 3.071,-0.908 3.071,-0.908 l 0.005,4.748 h 0.003 10e-4 2.68 v 0.562 3.051 c -0.854,-0.144 -1.76,-0.23 -2.733,-0.23 v 15.275 h -0.056 -0.046 -1.354 c -0.409,-2.111 -1.721,-6.391 -5.609,-5.873 -4.262,0.568 -5.114,5.305 -4.734,6.629 0,0 4.2,3.923 10.179,0.572 h 1.518 0.046 0.056 v 5.589 c -0.089,-0.357 -0.102,-0.618 -0.102,-0.618 0,0 -0.192,-2.653 -5.115,-1.799 -4.925,0.851 -7.956,-1.043 -7.199,-3.222 0.48,-1.38 -0.601,-2.228 -1.89,-2.397 0.159,-0.752 0.35,-1.506 0.573,-2.252 1.002,-3.373 2.66,-6.578 5.201,-8.811 0.28,-0.246 0.573,-0.476 0.877,-0.699 1.387,-1.018 3.008,-1.76 4.898,-2.131" />
      <path
         id="path5548"
         style="fill:#dbba9b;fill-opacity:1;fill-rule:nonzero;stroke:none;stroke-width:0.1"
         d="m 842.217,171.905 0.033,0.171 -0.03,-0.002 z" />
      <path
         id="path5550"
         style="fill:#dbba9b;fill-opacity:1;fill-rule:nonzero;stroke:none;stroke-width:0.1"
         d="m 857.116,174.143 v -2.133 l 0.01,2.133 z" />
      <path
         id="path5552"
         style="fill:#000000;fill-opacity:1;fill-rule:nonzero;stroke:none;stroke-width:0.1"
         d="m 842.912,164.592 c 1.289,0.169 2.37,1.017 1.89,2.397 -0.757,2.179 2.274,4.073 7.199,3.222 4.923,-0.854 5.115,1.799 5.115,1.799 v 2.133 c -8.62,-0.438 -14.196,-2.055 -14.866,-2.067 l -0.033,-0.171 -0.004,-0.014 c -0.178,-0.977 -0.063,-1.68 -0.063,-1.68 l -2.937,-2.842 c 0,0 -0.047,-0.33 0.118,-0.789 0.165,-0.463 0.543,-1.057 1.398,-1.58 0.122,-0.074 0.251,-0.138 0.387,-0.193 0.552,-0.229 1.197,-0.293 1.796,-0.215" />
      <path
         id="path5554"
         style="fill:#333333;fill-opacity:1;fill-rule:nonzero;stroke:none;stroke-width:0.1"
         d="m 869.452,169.809 c 2.13,0.141 1.208,0.709 1.633,-0.215 0.427,-0.922 0.853,-1.918 0.853,-1.918 0,0 0.083,0.304 0.182,0.765 0.062,0.278 0.126,0.612 0.182,0.973 0.13,0.83 0.212,1.809 0.077,2.586 -1.915,0.504 -3.785,0.893 -5.591,1.189 0.323,-1.248 1.124,-3.484 2.664,-3.38" />
      <path
         id="path5556"
         style="fill:#333333;fill-opacity:1;fill-rule:nonzero;stroke:none;stroke-width:0.1"
         d="m 857.218,173.992 v 0.153 h -0.063 l -0.021,-0.002 -0.018,-2.133 c 0,0 0.013,0.261 0.102,0.618 0.097,0.409 0.291,0.94 0.667,1.356 -0.225,0.004 -0.447,0.007 -0.667,0.008" />
      <path
         id="path5558"
         style="fill:#333333;fill-opacity:1;fill-rule:nonzero;stroke:none;stroke-width:0.1"
         d="m 865.859,173.334 c -1.231,0.182 -2.431,0.322 -3.599,0.424 1.636,-0.787 2.305,-1.391 3.599,-0.424" />
      <path
         id="path5560"
         style="fill:#000000;fill-opacity:1;fill-rule:nonzero;stroke:none;stroke-width:0.1"
         d="m 857.217,178.297 -0.004,9.217 0.004,-9.256 z" />
      <path
         id="path5562"
         style="fill:#000000;fill-opacity:1;fill-rule:nonzero;stroke:none;stroke-width:0.1"
         d="m 857.218,176.613 v 0 -2.465 l -0.063,-0.003 h 0.063 v 2.468" />
      <path
         id="path5564"
         style="fill:#981a27;fill-opacity:1;fill-rule:nonzero;stroke:none;stroke-width:0.1"
         d="m 857.219,178.779 c 2.56,0.188 3.281,-2.166 3.281,-2.166 h -3.281 -0.001 v -2.468 -0.153 c 0.22,-10e-4 0.442,-0.004 0.667,-0.008 1.392,-0.021 2.855,-0.092 4.375,-0.226 1.168,-0.102 2.368,-0.242 3.599,-0.424 0.309,-0.045 0.618,-0.096 0.929,-0.145 1.806,-0.296 3.676,-0.685 5.591,-1.189 l 0.238,-0.063 c 0,0 1.617,14.09 -15.404,15.786 v -0.209 l 0.004,-9.217 0.002,0.482" />
      <path
         id="path5566"
         style="fill:#000000;fill-opacity:1;fill-rule:nonzero;stroke:none;stroke-width:0.1"
         d="m 857.204,178.779 c -2.761,-0.129 -3.36,-2.295 -3.278,-2.166 h 3.278 l 0.007,1.098 -0.007,1.068" />
      <path
         id="path5568"
         style="fill:#333333;fill-opacity:1;fill-rule:nonzero;stroke:none;stroke-width:0.1"
         d="m 857.219,176.613 h 3.281 c 0,0 -0.721,2.354 -3.281,2.166 l -0.002,-0.482 v -0.039 l -0.006,-0.547 -0.007,-1.098 h 0.014 0.001" />
      <path
         id="path5570"
         style="fill:#000000;fill-opacity:1;fill-rule:nonzero;stroke:none;stroke-width:0.1"
         d="m 855.598,167.039 c -5.979,3.351 -10.179,-0.572 -10.179,-0.572 -0.38,-1.324 0.472,-6.061 4.734,-6.629 3.888,-0.518 5.2,3.762 5.609,5.873 h 1.354 v 1.328 h -1.518" />
      <path
         id="path5572"
         style="fill:#333333;fill-opacity:1;fill-rule:nonzero;stroke:none;stroke-width:0.1"
         d="m 864.138,159.934 c 4.261,0.568 5.115,5.304 4.736,6.628 0,0 -4.278,3.997 -10.347,0.477 h -1.309 -0.056 -0.046 v -1.328 h 0.046 0.056 1.331 c 0.429,-2.143 1.758,-6.289 5.589,-5.777" />
    </g>
  </g>
</svg>
